<?xml version="1.0"?>
<svg xmlns="http://www.w3.org/2000/svg" height="512px" viewBox="0 -27 512 511" width="512px"><path d="m210.285156 348.429688 118.804688-68.78125-118.410156-68.808594zm0 0" fill="#FFFFFF"/><path d="m45.714844 110.214844h-45.714844v347.429687h512v-347.429687zm292.550781 185.253906-118.398437 68.761719c-2.925782 1.710937-6.144532 2.550781-9.351563 2.550781-3.191406 0-6.382813-.839844-9.300781-2.515625-5.769532-3.316406-9.214844-9.25-9.214844-15.863281v-137.523438c0-6.621094 3.4375-12.546875 9.207031-15.863281 5.761719-3.3125 12.910157-3.300781 18.660157.027344l118.410156 68.769531c5.722656 3.320312 9.152344 9.246094 9.152344 15.828125 0 6.574219-3.429688 12.488281-9.164063 15.828125zm0 0" fill="#FFFFFF"/><path d="m457.144531 55.355469h-402.289062v36.574219h402.289062zm0 0" fill="#FFFFFF"/><path d="m109.714844.5h292.570312v36.570312h-292.570312zm0 0" fill="#FFFFFF"/></svg>
