<svg height="464pt" viewBox="0 -16 464 464" width="464pt" xmlns="http://www.w3.org/2000/svg"><path d="m456 368-72 16-56-320 72-16zm0 0" fill="#fdbd40"/><path d="m160 0h96v384h-96zm0 0" fill="#238892"/><path d="m0 112h80v272h-80zm0 0" fill="#238892"/><path d="m0 384h464v48h-464zm0 0" fill="#d3843d"/><path d="m256 112h80v272h-80zm0 0" fill="#e9686a"/><path d="m80 56h80v328h-80zm0 0" fill="#fdbd40"/><path d="m160 64h96v256h-96zm0 0" fill="#cfdfe8"/><path d="m80 320h80v32h-80zm0 0" fill="#e9686a"/><g fill="#fdbd40"><path d="m40 280c-4.417969 0-8-3.582031-8-8v-120c0-4.417969 3.582031-8 8-8s8 3.582031 8 8v120c0 4.417969-3.582031 8-8 8zm0 0"/><path d="m40 328c-4.417969 0-8-3.582031-8-8v-16c0-4.417969 3.582031-8 8-8s8 3.582031 8 8v16c0 4.417969-3.582031 8-8 8zm0 0"/><path d="m256 168h80v72h-80zm0 0"/></g><path d="m224 104h-32c-4.417969 0-8-3.582031-8-8s3.582031-8 8-8h32c4.417969 0 8 3.582031 8 8s-3.582031 8-8 8zm0 0" fill="#238892"/><path d="m224 296h-32c-4.417969 0-8-3.582031-8-8s3.582031-8 8-8h32c4.417969 0 8 3.582031 8 8s-3.582031 8-8 8zm0 0" fill="#238892"/></svg>