<?xml version="1.0" encoding="iso-8859-1"?>
<!-- Generator: Adobe Illustrator 18.0.0, SVG Export Plug-In . SVG Version: 6.00 Build 0)  -->
<!DOCTYPE svg PUBLIC "-//W3C//DTD SVG 1.1//EN" "http://www.w3.org/Graphics/SVG/1.1/DTD/svg11.dtd">
<svg version="1.1" id="Capa_1" xmlns="http://www.w3.org/2000/svg" xmlns:xlink="http://www.w3.org/1999/xlink" x="0px" y="0px"
	 viewBox="0 0 60 60" style="enable-background:new 0 0 60 60;" xml:space="preserve">
<g>
	<g>
		<g>
			<rect x="1" y="4" style="fill:#ECF0F1;" width="55" height="42"/>
			<path style="fill:#545E73;" d="M57,47H0V3h57V47z M2,45h53V5H2V45z"/>
		</g>
		<g>
			<rect x="5" y="8" style="fill:#545E73;" width="47" height="34"/>
			<path style="fill:#ECF0F1;" d="M53,43H4V7h49V43z M6,41h45V9H6V41z"/>
		</g>
		<circle style="fill:#F3D55A;" cx="15" cy="16.569" r="4.569"/>
		<polygon style="fill:#11A085;" points="51,32.111 50,31 38,20 27.5,31.5 32.983,36.983 37,41 51,41 		"/>
		<polygon style="fill:#26B999;" points="6,41 37,41 32.983,36.983 22.017,26.017 6,40 		"/>
	</g>
	<g>
		<circle style="fill:#B1D3EF;" cx="47.5" cy="44.5" r="12.5"/>
		<g>
			<path style="fill:#556080;" d="M57.193,45.019c-0.55-0.113-1.068,0.246-1.175,0.788C55.198,49.975,51.616,53,47.5,53
				c-3.351,0-6.347-2.006-7.789-5H45v-2h-6h-1h-1v8h2v-3.341C40.976,53.315,44.085,55,47.5,55c5.068,0,9.477-3.704,10.481-8.807
				C58.087,45.651,57.735,45.125,57.193,45.019z"/>
			<path style="fill:#556080;" d="M56,34.998v3.341c-1.976-2.657-5.086-4.341-8.5-4.341c-5.068,0-9.477,3.704-10.481,8.807
				c-0.106,0.542,0.246,1.068,0.788,1.174c0.55,0.113,1.068-0.246,1.175-0.788c0.82-4.168,4.402-7.193,8.519-7.193
				c3.351,0,6.347,2.006,7.789,5H50v2h6h1h1v-8H56z"/>
		</g>
	</g>
</g>
<g>
</g>
<g>
</g>
<g>
</g>
<g>
</g>
<g>
</g>
<g>
</g>
<g>
</g>
<g>
</g>
<g>
</g>
<g>
</g>
<g>
</g>
<g>
</g>
<g>
</g>
<g>
</g>
<g>
</g>
</svg>
