<?xml version="1.0" encoding="iso-8859-1"?>
<!-- Generator: Adobe Illustrator 19.0.0, SVG Export Plug-In . SVG Version: 6.00 Build 0)  -->
<svg xmlns="http://www.w3.org/2000/svg" xmlns:xlink="http://www.w3.org/1999/xlink" version="1.1" id="Capa_1" x="0px" y="0px" viewBox="0 0 512 512" style="enable-background:new 0 0 512 512;" xml:space="preserve" width="512px" height="512px">
<g>
	<g>
		<path d="M492.02,369.389v-37.463h-29.971V175.079c0-96.401-78.428-174.829-174.829-174.829h-62.439    c-96.401,0-174.829,78.428-174.829,174.829v156.847H19.98v37.463H0v29.971h19.98v37.463h29.971v29.971    c0,24.789,20.167,44.956,44.956,44.956h29.971c24.789,0,44.956-20.167,44.956-44.956V326.931    c0-24.789-20.167-44.956-44.956-44.956H79.922V215.04c0-79.875,64.984-144.859,144.859-144.859h62.439    c79.875,0,144.859,64.984,144.859,144.859v66.935h-44.956c-24.789,0-44.956,20.167-44.956,44.956v139.863    c0,24.789,20.167,44.956,44.956,44.956h29.971c24.789,0,44.956-20.167,44.956-44.956v-29.971h29.971V399.36H512v-29.971H492.02z" fill="#FFFFFF"/>
	</g>
</g>
<g>
</g>
<g>
</g>
<g>
</g>
<g>
</g>
<g>
</g>
<g>
</g>
<g>
</g>
<g>
</g>
<g>
</g>
<g>
</g>
<g>
</g>
<g>
</g>
<g>
</g>
<g>
</g>
<g>
</g>
</svg>
