<?xml version="1.0"?>
<svg xmlns="http://www.w3.org/2000/svg" height="512px" viewBox="0 0 384 384" width="512px"><path d="m0 288v96h384v-384h-384zm352 64h-48v-32h48zm-320-320h320v256h-320zm0 288h240v32h-240zm0 0" fill="#FFFFFF"/><path d="m288 64h32v80h-32zm0 0" fill="#FFFFFF"/><path d="m288 176h32v80h-32zm0 0" fill="#FFFFFF"/><path d="m160 64c-52.9375 0-96 43.0625-96 96s43.0625 96 96 96 96-43.0625 96-96-43.0625-96-96-96zm0 160c-35.289062 0-64-28.710938-64-64s28.710938-64 64-64 64 28.710938 64 64-28.710938 64-64 64zm0 0" fill="#FFFFFF"/><path d="m144 144h32v32h-32zm0 0" fill="#FFFFFF"/></svg>
