<?xml version="1.0" encoding="iso-8859-1"?>
<!-- Generator: Adobe Illustrator 16.0.0, SVG Export Plug-In . SVG Version: 6.00 Build 0)  -->
<!DOCTYPE svg PUBLIC "-//W3C//DTD SVG 1.1//EN" "http://www.w3.org/Graphics/SVG/1.1/DTD/svg11.dtd">
<svg xmlns="http://www.w3.org/2000/svg" xmlns:xlink="http://www.w3.org/1999/xlink" version="1.1" id="Capa_1" x="0px" y="0px" width="512px" height="512px" viewBox="0 0 612 612" style="enable-background:new 0 0 612 612;" xml:space="preserve">
<g>
	<g id="Ellipse_2_copy_3">
		<g>
			<path d="M55.636,250.364C24.907,250.364,0,275.27,0,306c0,30.73,24.907,55.636,55.636,55.636S111.273,336.73,111.273,306     C111.273,275.27,86.366,250.364,55.636,250.364z M315.273,250.364c-30.73,0-55.636,24.907-55.636,55.636     c0,30.729,24.907,55.636,55.636,55.636c30.729,0,55.636-24.905,55.636-55.636C370.909,275.27,346.003,250.364,315.273,250.364z      M556.364,250.364c-30.73,0-55.636,24.907-55.636,55.636c0,30.729,24.906,55.636,55.636,55.636     C587.093,361.636,612,336.73,612,306C612,275.27,587.093,250.364,556.364,250.364z" fill="#FFFFFF"/>
		</g>
	</g>
</g>
<g>
</g>
<g>
</g>
<g>
</g>
<g>
</g>
<g>
</g>
<g>
</g>
<g>
</g>
<g>
</g>
<g>
</g>
<g>
</g>
<g>
</g>
<g>
</g>
<g>
</g>
<g>
</g>
<g>
</g>
</svg>
